<?xml version="1.0" encoding="UTF-8"?>
<svg version="1.1" xmlns="http://www.w3.org/2000/svg" width="1920" height="640">
<path d="M0 0 C633.6 0 1267.2 0 1920 0 C1920 211.2 1920 422.4 1920 640 C1286.4 640 652.8 640 0 640 C0 428.8 0 217.6 0 0 Z " fill="#FEFDF8" transform="translate(0,0)"/>
<path d="M0 0 C5.69450482 4.28347707 10.24426859 8.94236869 14 15 C14 15.66 14 16.32 14 17 C16.3508683 14.72259634 18.60920577 12.47472924 20.69140625 9.9453125 C29.14111618 -0.25078842 39.80094928 -7.1556612 53 -9 C69.81731325 -10.00171854 83.64243755 -7.05411085 96.66796875 3.73046875 C108.403479 15.15145946 109.9423314 32.25480871 110.22075868 47.78854561 C110.25571304 51.94522874 110.24487554 56.10107125 110.22705078 60.2578125 C110.22648514 62.13206984 110.2268062 64.00632763 110.22793579 65.88058472 C110.22850435 70.91670657 110.21683139 75.95273112 110.20278788 80.98883057 C110.19019683 86.27119439 110.18910347 91.55356099 110.18673706 96.8359375 C110.18054672 106.81564551 110.16416934 116.79530915 110.14403808 126.77499771 C110.12160252 138.14636745 110.11066648 149.51773942 110.10064721 160.88912582 C110.07980067 184.2594474 110.04315537 207.62970824 110 231 C86.9 231 63.8 231 40 231 C39.97812622 222.67225342 39.97812622 222.67225342 39.95581055 214.17626953 C39.90548028 195.83582599 39.83903776 177.49546699 39.76428509 159.1551075 C39.7193549 148.03505528 39.67993378 136.91503488 39.65356445 125.79492188 C39.63056194 116.10054811 39.59713864 106.40627531 39.55129844 96.71198165 C39.52739671 91.58082139 39.50864792 86.44976093 39.50238609 81.3185463 C39.49632148 76.48402885 39.47627185 71.64976666 39.44572449 66.81534386 C39.43696632 65.04574928 39.43321706 63.27612132 39.43499184 61.50650597 C39.77812772 48.36508279 39.77812772 48.36508279 36 36 C31.96577178 33.31051452 28.7357002 33.33940414 24 34 C20.55896696 36.02932718 20.08180335 37.73125347 18.92227173 41.54063416 C17.3220905 49.20120366 17.69031597 57.12229279 17.68115234 64.91235352 C17.67184397 66.72647036 17.66167395 68.54058295 17.65071106 70.35469055 C17.62349951 75.25895088 17.60828795 80.16318263 17.59528303 85.06749845 C17.57961368 90.20046328 17.55283563 95.33337007 17.5272522 100.46629333 C17.48053166 110.17702995 17.44375504 119.88777756 17.41057932 129.59856886 C17.37231036 140.65785341 17.32291272 151.71707958 17.27259517 162.77631485 C17.16937534 185.51750542 17.08155155 208.25872069 17 231 C-6.1 231 -29.2 231 -53 231 C-53.01981934 225.5139917 -53.03963867 220.0279834 -53.06005859 214.37573242 C-53.12697517 196.24685452 -53.20451592 178.11803354 -53.28752708 159.98922253 C-53.33759574 148.99811881 -53.38403926 138.00702234 -53.421875 127.01586914 C-53.45487145 117.43320738 -53.49474478 107.8506028 -53.54279006 98.26800424 C-53.56797904 93.19663365 -53.58978261 88.12530062 -53.60334396 83.05388451 C-53.6162335 78.27440559 -53.63836141 73.49505598 -53.66738319 68.71564865 C-53.67640533 66.96743359 -53.68213657 65.21919773 -53.68421364 63.47096062 C-53.25366193 49.98608659 -53.25366193 49.98608659 -56 37 C-58.89435225 34.36211333 -60.65446847 33.61774851 -64.5625 33.75 C-65.32691406 33.76546875 -66.09132813 33.7809375 -66.87890625 33.796875 C-69.18773737 33.93793945 -69.18773737 33.93793945 -72 35 C-73.16666667 36.91666667 -73.16666667 36.91666667 -74 39 C-74.495 39.99 -74.495 39.99 -75 41 C-75.10759465 43.49337426 -75.15489237 45.95956434 -75.15821838 48.4536438 C-75.16315636 49.2312276 -75.16809434 50.0088114 -75.17318195 50.80995834 C-75.1886055 53.42945567 -75.19693067 56.04892841 -75.20532227 58.66845703 C-75.21489698 60.54065164 -75.22490681 62.41284406 -75.23532104 64.28503418 C-75.26242029 69.37978068 -75.28340263 74.47453649 -75.30332303 79.56931543 C-75.32515169 84.88915369 -75.35255561 90.20896308 -75.37937927 95.52877808 C-75.42934845 105.60807999 -75.47427157 115.68739789 -75.51740164 125.76673114 C-75.56673796 137.23937152 -75.62166943 148.71198295 -75.67708123 160.18459535 C-75.79096612 183.78970458 -75.89705224 207.39484036 -76 231 C-99.1 231 -122.2 231 -146 231 C-146 153.12 -146 75.24 -146 -5 C-122.57 -5 -99.14 -5 -75 -5 C-75 1.6 -75 8.2 -75 15 C-73.02 12.36 -71.04 9.72 -69 7 C-50.77348971 -12.65102712 -21.80583171 -14.0771825 0 0 Z " fill="#993499" transform="translate(1677,192)"/>
<path d="M0 0 C20.46 0 40.92 0 62 0 C62.5775 5.589375 63.155 11.17875 63.75 16.9375 C65.08773408 29.7419212 66.49526577 42.53407124 68.0625 55.3125 C68.14525177 55.9878479 68.22800354 56.6631958 68.31326294 57.35900879 C68.87142544 61.90651398 69.43507124 66.45333016 70 71 C73.06405366 95.66529965 73.06405366 95.66529965 73.66674805 106.15112305 C74.09579665 111.10639866 74.80818025 116.00214866 75.53125 120.921875 C75.67208008 121.89302246 75.81291016 122.86416992 75.95800781 123.86474609 C76.30325994 126.24347477 76.65064333 128.62187129 77 131 C77.06423314 130.45852262 77.12846628 129.91704525 77.19464588 129.35915947 C78.77074625 116.07396576 80.34902152 102.7890319 81.92953205 89.50436211 C82.69384703 83.07952352 83.45748266 76.65460581 84.21948242 70.22949219 C84.95698354 64.01117454 85.69637791 57.7930845 86.43700218 51.57513809 C86.71708691 49.22097664 86.9965269 46.86673837 87.27526283 44.51241684 C87.67040773 41.17586846 88.0679971 37.83961879 88.46606445 34.50341797 C88.57683823 33.56328354 88.687612 32.62314911 88.80174255 31.65452576 C90.06843469 21.08218116 91.56062314 10.55543033 93 0 C112.8 0 132.6 0 153 0 C158.13471889 42.60428914 158.13471889 42.60428914 159.82861328 59.53442383 C160.60636581 67.28077343 161.43613788 75.01983471 162.29296875 82.7578125 C162.40734283 83.79417847 162.52171692 84.83054443 162.63955688 85.89831543 C163.33364167 92.18669219 163.33364167 92.18669219 164.03515625 98.47424316 C164.36401796 101.40694778 164.68824557 104.34013436 165.01171875 107.2734375 C165.16147408 108.5903508 165.16147408 108.5903508 165.31425476 109.93386841 C165.83074983 114.65703643 166.10147603 119.24867575 166 124 C166.66 124 167.32 124 168 124 C168.03738281 122.78570312 168.07476563 121.57140625 168.11328125 120.3203125 C168.59962074 106.91142785 169.94318283 93.70357576 171.58837891 80.39208984 C172.00896964 76.92608293 172.40486555 73.4580685 172.79296875 69.98828125 C172.92203613 68.8386792 173.05110352 67.68907715 173.18408203 66.50463867 C173.42766443 64.32921213 173.66965397 62.15360634 173.90966797 59.9777832 C174.57449319 54.12119165 175.40988586 48.32551826 176.40893555 42.51708984 C177.14851623 38.11626401 177.83034155 33.7076299 178.5078125 29.296875 C178.68344475 28.1543779 178.68344475 28.1543779 178.86262512 26.98880005 C179.28409497 24.24263737 179.70448716 21.49630939 180.125 18.75 C181.07375 12.5625 182.0225 6.375 183 0 C203.46 0 223.92 0 245 0 C245 11.24897008 245 11.24897008 244.37670898 16.08984375 C244.23887497 17.18537567 244.10104095 18.28090759 243.95903015 19.40963745 C243.80626114 20.57383209 243.65349213 21.73802673 243.49609375 22.9375 C243.25274967 24.8542933 243.00940845 26.77108696 242.76617908 28.68789482 C242.50670483 30.72356917 242.24422532 32.75883518 241.98083496 34.79400635 C241.14592305 41.2468494 240.32959821 47.70205961 239.51098251 54.15698624 C239.22913899 56.37766481 238.94653345 58.59824549 238.66384888 60.81881714 C236.64027043 76.73595267 234.72953232 92.66633336 232.83737183 108.59960938 C231.34503325 121.16266491 229.78827312 133.7124867 228.09375 146.25 C225.63833861 164.43725125 223.44967882 182.65528111 221.25 200.875 C219.14625 218.261875 219.14625 218.261875 217 236 C191.26 236 165.52 236 139 236 C137.13841976 226.07157205 135.42665933 216.40498951 134.29321289 206.40716553 C133.88619634 202.82208187 133.45956171 199.23930955 133.03515625 195.65625 C132.94940338 194.92888641 132.86365051 194.20152283 132.77529907 193.45211792 C131.92158113 186.25014812 130.97115543 179.06202738 130 171.875 C128.54966958 161.1291406 127.13316551 150.37967161 125.75 139.625 C125.61658203 138.58808014 125.61658203 138.58808014 125.48046875 137.5302124 C124.98609257 133.68692181 124.49261638 129.84351653 124 126 C123.93006836 126.6305127 123.86013672 127.26102539 123.78808594 127.91064453 C120.7998494 154.69427592 117.28297677 181.39144329 113 208 C112.84950195 208.93811523 112.69900391 209.87623047 112.54394531 210.84277344 C111.16875125 219.26122947 109.5733858 227.60860905 108 236 C82.26 236 56.52 236 30 236 C28.64537362 227.87224169 27.40944768 219.80249855 26.4140625 211.6328125 C26.2722757 210.48734451 26.13048889 209.34187653 25.98440552 208.16169739 C25.68384597 205.73250834 25.38433633 203.30318919 25.08581543 200.87374878 C24.31029522 194.56486618 23.52632649 188.25703505 22.7421875 181.94921875 C22.58963501 180.72112991 22.43708252 179.49304108 22.27990723 178.22773743 C21.14658829 169.12493175 19.97525954 160.02839444 18.75 150.9375 C18.59345947 149.77597412 18.43691895 148.61444824 18.27563477 147.41772461 C17.9842621 145.26213422 17.69238783 143.10661155 17.39990234 140.95117188 C16.77837453 136.36446358 16.16601127 131.77661306 15.5625 127.1875 C15.44890137 126.32406982 15.33530273 125.46063965 15.21826172 124.57104492 C14.35291649 117.90742078 13.54135548 111.23775518 12.73828125 104.56640625 C12.57064018 103.17720222 12.57064018 103.17720222 12.39961243 101.75993347 C11.83322446 97.06464943 11.27030331 92.36899455 10.71313477 87.67260742 C10.50418713 85.93276576 10.29512636 84.19293768 10.0859375 82.453125 C9.94391655 81.24064842 9.94391655 81.24064842 9.79902649 80.00367737 C9.41913497 76.86555986 9.00260296 74.00780889 8 71 C7.68899531 68.70613567 7.4180433 66.40677277 7.16796875 64.10546875 C7.00947179 62.67406876 6.85094169 61.24267243 6.69238281 59.8112793 C6.61008423 59.05712738 6.52778564 58.30297546 6.44299316 57.52597046 C4.90622677 43.46029934 3.19282119 29.4319952 1.21948242 15.4206543 C1.05939697 14.26476807 0.89931152 13.10888184 0.734375 11.91796875 C0.59225586 10.91531982 0.45013672 9.9126709 0.30371094 8.87963867 C-0.00692252 5.93436402 0 2.96161036 0 0 Z " fill="#993399" transform="translate(535,187)"/>
<path d="M0 0 C3.82581128 2.98510752 7.19763461 6.32276221 10.453125 9.9140625 C10.88625 8.7590625 11.319375 7.6040625 11.765625 6.4140625 C14.109375 0.1640625 14.109375 0.1640625 16.453125 -6.0859375 C38.563125 -6.0859375 60.673125 -6.0859375 83.453125 -6.0859375 C83.47572938 21.55713706 83.49413761 49.20020409 83.50493717 76.84328556 C83.51008566 89.67946263 83.51710072 102.51563353 83.52856445 115.35180664 C83.53855557 126.54443203 83.54498895 137.73705295 83.54721349 148.92968267 C83.54851309 154.85185546 83.55155122 160.77401548 83.55885506 166.69618416 C83.56568522 172.27997362 83.56772783 177.86374514 83.56623268 183.44753838 C83.56650588 185.48757398 83.56846923 187.52761024 83.57233047 189.56764221 C83.64963621 232.55008066 83.64963621 232.55008066 67.640625 249.2890625 C45.01117982 270.62149574 12.22878076 271.65936873 -17.01708984 271.04589844 C-34.64302047 270.38757761 -55.14813271 266.48258143 -68.53125 254.07421875 C-79.67212565 242.05254737 -81.546875 230.28602121 -81.546875 213.9140625 C-58.776875 213.9140625 -36.006875 213.9140625 -12.546875 213.9140625 C-11.886875 216.5540625 -11.226875 219.1940625 -10.546875 221.9140625 C-8.75526299 225.6260734 -8.75526299 225.6260734 -5.546875 227.9140625 C-3.92521748 228.03554555 -2.29803173 228.08949902 -0.671875 228.1015625 C0.19179688 228.11574219 1.05546875 228.12992188 1.9453125 228.14453125 C4.68053447 227.8931635 6.13353265 227.36035897 8.453125 225.9140625 C12.7754358 219.00600072 12.00599427 209.65629842 12.140625 201.8515625 C12.17386798 200.49541118 12.20836385 199.13928997 12.24414062 197.78320312 C12.3260887 194.49357313 12.39541462 191.20419195 12.453125 187.9140625 C11.65390625 188.50574219 10.8546875 189.09742188 10.03125 189.70703125 C-5.99974236 201.33842048 -22.32658055 206.04925613 -42.078125 203.44921875 C-53.38316488 201.17475239 -64.02542 195.82627711 -71.546875 186.9140625 C-79.17610904 174.74291092 -82.00796988 162.35678011 -81.95092773 148.05566406 C-81.95779099 146.8311554 -81.96465424 145.60664673 -81.97172546 144.34503174 C-81.98677025 141.02226812 -81.98852054 137.70007136 -81.98278308 134.37731647 C-81.9796648 131.58469475 -81.98581303 128.79212231 -81.99182183 125.99950767 C-82.00581124 119.39969414 -82.00435407 112.8000102 -81.99291992 106.20019531 C-81.98145837 99.435926 -81.99549383 92.67205411 -82.0223164 85.90783715 C-82.04461606 80.06108099 -82.05107857 74.21444824 -82.04523998 68.36765265 C-82.04190128 64.89301766 -82.04407518 61.41863683 -82.06149101 57.94403839 C-82.24676745 17.06126357 -82.24676745 17.06126357 -67.734375 1.5390625 C-49.10234207 -15.68412106 -19.97070827 -13.57290652 0 0 Z " fill="#FE9933" transform="translate(439.546875,193.0859375)"/>
<path d="M0 0 C0.92296875 0.19335938 1.8459375 0.38671875 2.796875 0.5859375 C19.83924184 4.87437621 34.73670397 16.35290053 44.1640625 30.90234375 C55.29063868 49.67548185 54.16660791 70.37852275 54.203125 91.484375 C54.20736607 93.15249615 54.20736607 93.15249615 54.21169281 94.85431671 C54.22659642 100.736539 54.23588232 106.6187373 54.24023438 112.50097656 C54.245715 118.52316914 54.26976034 124.54513523 54.29820633 130.56725693 C54.31697186 135.24831762 54.3220456 139.92932513 54.32357025 144.61042023 C54.3265645 146.828425 54.33448124 149.04642959 54.34775543 151.26439667 C54.43614422 167.16334324 54.46098717 184.13425409 48 199 C47.61328125 199.91652344 47.2265625 200.83304688 46.828125 201.77734375 C39.74866011 217.22887245 28.67453522 227.80078268 13.3125 234.8125 C11.22375003 235.58472079 9.11790151 236.31174527 7 237 C5.84886719 237.391875 4.69773437 237.78375 3.51171875 238.1875 C-7.26051228 241.39148557 -18.17269464 241.37203608 -29.3125 241.375 C-30.47458984 241.37785507 -30.47458984 241.37785507 -31.66015625 241.38076782 C-53.91430555 241.37459004 -76.30572527 238.01975858 -93 222 C-103.94619506 209.17974819 -109.29214957 192.33366335 -110.23046875 175.71875 C-110.3427607 173.9465509 -110.3427607 173.9465509 -110.45732117 172.1385498 C-111.34607671 156.38114063 -111.33783588 140.59650588 -111.31567383 124.81884766 C-111.31103232 121.27282054 -111.318023 117.72713563 -111.33618164 114.18115234 C-111.71191131 40.00825925 -111.71191131 40.00825925 -91.4375 17.875 C-66.99233845 -5.10722717 -31.2812056 -7.00227824 0 0 Z " fill="#993499" transform="translate(1453,186)"/>
<path d="M0 0 C24.09 0 48.18 0 73 0 C73.33 37.95 73.66 75.9 74 115 C75.65 109.72 77.3 104.44 79 99 C80.09267553 95.68268621 81.19213948 92.37023107 82.3125 89.0625 C85.46021025 79.71325142 88.46917575 70.32262284 91.4230957 60.91040039 C91.7449585 59.89324951 92.06682129 58.87609863 92.3984375 57.828125 C92.82648682 56.4654248 92.82648682 56.4654248 93.26318359 55.07519531 C94 53 94 53 95 52 C96.8718094 51.90613619 98.7471806 51.88256196 100.62133789 51.88647461 C102.42309227 51.88658791 102.42309227 51.88658791 104.26124573 51.88670349 C105.5685112 51.89186478 106.87577667 51.89702606 108.22265625 51.90234375 C109.56644132 51.90420802 110.91022707 51.90563188 112.25401306 51.90663147 C115.79682277 51.91045598 119.3395917 51.92028568 122.88238525 51.93133545 C126.49515227 51.94155101 130.10792584 51.9461294 133.72070312 51.95117188 C140.8138188 51.96190802 147.90690674 51.97898364 155 52 C152.30603322 61.45517958 149.57325607 70.89499125 146.75 80.3125 C146.55779877 80.95419128 146.36559753 81.59588257 146.16757202 82.25701904 C143.16495178 92.26986292 140.03452805 102.23753702 136.82495117 112.18603516 C134.68254364 118.83697819 132.58672018 125.49958062 130.5625 132.1875 C130.19185425 133.39913818 130.19185425 133.39913818 129.8137207 134.63525391 C129.47473755 135.76519775 129.47473755 135.76519775 129.12890625 136.91796875 C128.93369385 137.56531982 128.73848145 138.2126709 128.53735352 138.87963867 C126.99735674 144.95636381 127.25244347 149.31441258 128.94921875 155.3359375 C129.2700518 156.53145737 129.2700518 156.53145737 129.59736633 157.75112915 C130.28272965 160.29565624 130.98454676 162.83528239 131.6875 165.375 C132.36617059 167.87000547 133.04140999 170.36592364 133.71658325 172.86187744 C134.16403574 174.51381846 134.61315838 176.16530799 135.06393433 177.81634521 C136.47038805 182.97940348 137.80556881 188.1549502 139.08203125 193.3515625 C140.57077566 199.40230187 142.22321832 205.39266882 143.95947266 211.37695312 C145.95116147 218.31188085 147.81041976 225.28334552 149.6875 232.25 C150.00590851 233.43041367 150.00590851 233.43041367 150.33074951 234.63467407 C153.41251374 246.0617226 156.48164606 257.49222215 159.52407837 268.92980957 C159.92349272 270.43042781 160.32369557 271.93083641 160.72470093 273.43103027 C161.27987469 275.50936264 161.83181983 277.58852462 162.3828125 279.66796875 C162.69621582 280.84641357 163.00961914 282.0248584 163.33251953 283.23901367 C164 286 164 286 164 288 C141.23 288 118.46 288 95 288 C92.56003832 278.24015327 90.21650729 268.5939821 88.25 258.75 C85.43935928 244.91832472 82.40064888 231.14298921 79.3130188 217.37088013 C78.68918064 214.58464579 78.06860956 211.79769019 77.4487915 209.01055908 C77.14891956 207.6671507 76.84711175 206.32417302 76.543396 204.98162842 C76.11134921 203.07086724 75.68639529 201.15850651 75.26171875 199.24609375 C75.01768311 198.15868896 74.77364746 197.07128418 74.5222168 195.95092773 C74.03942439 193.22277823 73.89676271 190.76183712 74 188 C73.34 188 72.68 188 72 188 C72 221 72 254 72 288 C48.24 288 24.48 288 0 288 C0 192.96 0 97.92 0 0 Z " fill="#FE9934" transform="translate(185,135)"/>
<path d="M0 0 C15.15061238 13.08048366 19.87576148 27.15599907 23.0390625 46.43359375 C23.17062744 47.1810083 23.30219238 47.92842285 23.43774414 48.69848633 C24.8504691 57.89782447 24.3515625 66.26515641 24.3515625 75.87109375 C1.9115625 75.87109375 -20.5284375 75.87109375 -43.6484375 75.87109375 C-43.9609375 56.43359375 -43.9609375 56.43359375 -44.03637695 50.35375977 C-44.06870893 48.73581717 -44.1020885 47.11789503 -44.13671875 45.5 C-44.14296265 44.68237183 -44.14920654 43.86474365 -44.15563965 43.02233887 C-44.29461153 37.36997346 -45.04890546 31.96712045 -47.6484375 26.87109375 C-50.74624698 24.80588743 -51.6024856 24.57632351 -55.1484375 24.55859375 C-56.30859375 24.53345703 -56.30859375 24.53345703 -57.4921875 24.5078125 C-60.201327 24.96424361 -61.02594272 25.67973647 -62.6484375 27.87109375 C-63.70972762 31.12585887 -63.77883636 34.15972896 -63.78887939 37.56852722 C-63.79458954 38.73058685 -63.80029968 39.89264648 -63.80618286 41.08992004 C-63.80730072 42.36115219 -63.80841858 43.63238434 -63.80957031 44.94213867 C-63.8142009 46.2975681 -63.81922588 47.65299623 -63.82461548 49.00842285 C-63.83772055 52.6884245 -63.84418104 56.36840792 -63.84862614 60.04842925 C-63.85156064 62.35010697 -63.85566622 64.65177975 -63.86013031 66.95345497 C-63.87380186 74.16212922 -63.88346951 81.37079213 -63.8873322 88.57947844 C-63.89180865 96.88696448 -63.90933869 105.19428564 -63.9383328 113.50172156 C-63.95999094 119.93161706 -63.97003872 126.36146631 -63.97137332 132.79139787 C-63.97241863 136.62751346 -63.97826751 140.46347399 -63.99619293 144.29955101 C-64.01274473 147.91194847 -64.01479497 151.52407549 -64.00605392 155.1364975 C-64.00492376 157.08255998 -64.01858713 159.02861377 -64.0328064 160.97462463 C-63.9954971 168.85403802 -63.43289695 175.79384956 -58.8984375 182.43359375 C-55.64537577 184.51193874 -53.43601703 184.3362351 -49.6484375 183.87109375 C-46.77389114 183.09665478 -46.77389114 183.09665478 -44.6484375 180.87109375 C-41.50889941 174.36571891 -41.18250459 167.81483228 -41.13671875 160.7109375 C-41.12008179 159.79606567 -41.10344482 158.88119385 -41.08630371 157.93859863 C-41.02901892 154.56215768 -40.99638072 151.18533461 -40.9609375 147.80859375 C-40.8578125 140.23921875 -40.7546875 132.66984375 -40.6484375 124.87109375 C-19.1984375 124.87109375 2.2515625 124.87109375 24.3515625 124.87109375 C24.3515625 177.20747819 24.3515625 177.20747819 9.3515625 197.87109375 C8.88105469 198.58523438 8.41054687 199.299375 7.92578125 200.03515625 C-1.95577946 214.45388428 -19.65183675 222.163483 -36.30883789 225.38574219 C-40.05385029 225.93001331 -43.73563871 226.06970592 -47.51171875 226.109375 C-48.63709297 226.12148262 -48.63709297 226.12148262 -49.78520203 226.13383484 C-51.37281024 226.14761529 -52.96044732 226.15836422 -54.5480957 226.16625977 C-56.13705423 226.17767493 -57.72597769 226.1979566 -59.31469727 226.2277832 C-81.24152233 226.63803738 -101.13880491 221.57774491 -117.7109375 206.49609375 C-137.83326698 185.59140309 -136.96801169 152.99952349 -136.94921875 126.015625 C-136.95311726 123.6558983 -136.95745425 121.29617229 -136.96220398 118.93644714 C-136.96961207 114.02246816 -136.96941316 109.10856111 -136.96411133 104.19458008 C-136.95830339 97.93453886 -136.97530642 91.67479224 -136.998456 85.41479969 C-137.01326275 80.55285456 -137.01405597 75.69097942 -137.01094627 70.82901573 C-137.01145532 68.52201438 -137.01661354 66.21500866 -137.02675819 63.90802956 C-137.10385414 43.94114044 -136.60550491 22.71889689 -122.6484375 6.87109375 C-121.9884375 6.87109375 -121.3284375 6.87109375 -120.6484375 6.87109375 C-120.6484375 6.21109375 -120.6484375 5.55109375 -120.6484375 4.87109375 C-89.77753144 -25.43076335 -33.31137569 -26.77684329 0 0 Z " fill="#993499" transform="translate(1299.6484375,201.12890625)"/>
<path d="M0 0 C1.03330948 0.00141495 2.06661896 0.0028299 3.13124084 0.00428772 C6.41174285 0.00985786 9.69217508 0.02240484 12.97265625 0.03515625 C15.20507714 0.04017511 17.4374991 0.04473734 19.66992188 0.04882812 C25.12504812 0.058964 30.58002463 0.07854524 36.03515625 0.09765625 C36.03515625 12.30765625 36.03515625 24.51765625 36.03515625 37.09765625 C22.66015625 37.91015625 22.66015625 37.91015625 18.44384766 38.14379883 C17.35249512 38.21751709 16.26114258 38.29123535 15.13671875 38.3671875 C14.01604004 38.43526611 12.89536133 38.50334473 11.74072266 38.57348633 C10.84788574 38.7464624 9.95504883 38.91943848 9.03515625 39.09765625 C6.63183145 42.70264344 6.59802201 45.60892717 6.41015625 49.78515625 C6.22453125 53.40484375 6.22453125 53.40484375 6.03515625 57.09765625 C15.93515625 57.09765625 25.83515625 57.09765625 36.03515625 57.09765625 C36.03515625 69.63765625 36.03515625 82.17765625 36.03515625 95.09765625 C30.42515625 95.09765625 24.81515625 95.09765625 19.03515625 95.09765625 C19.03515625 158.78765625 19.03515625 222.47765625 19.03515625 288.09765625 C-4.72484375 288.09765625 -28.48484375 288.09765625 -52.96484375 288.09765625 C-52.96484375 224.40765625 -52.96484375 160.71765625 -52.96484375 95.09765625 C-57.91484375 95.09765625 -62.86484375 95.09765625 -67.96484375 95.09765625 C-67.96484375 82.88765625 -67.96484375 70.67765625 -67.96484375 58.09765625 C-63.01484375 58.09765625 -58.06484375 58.09765625 -52.96484375 58.09765625 C-52.99964844 56.19242188 -53.03445313 54.2871875 -53.0703125 52.32421875 C-53.09846634 49.79037345 -53.12576477 47.25651855 -53.15234375 44.72265625 C-53.17748047 43.47097656 -53.20261719 42.21929687 -53.22851562 40.9296875 C-53.31309476 30.15994489 -52.1338346 21.51450721 -45.0234375 13.1328125 C-33.39982339 1.64153555 -15.56034367 -0.08096406 0 0 Z " fill="#993499" transform="translate(947.96484375,134.90234375)"/>
<path d="M0 0 C24.42 0 48.84 0 74 0 C74 77.88 74 155.76 74 236 C49.58 236 25.16 236 0 236 C0 158.12 0 80.24 0 0 Z " fill="#993399" transform="translate(998,187)"/>
<path d="M0 0 C24.42 0 48.84 0 74 0 C74 77.88 74 155.76 74 236 C49.58 236 25.16 236 0 236 C0 158.12 0 80.24 0 0 Z " fill="#993399" transform="translate(792,187)"/>
<path d="M0 0 C2.3828125 0.35546875 2.3828125 0.35546875 4.9453125 2.10546875 C7.46284805 6.04595917 7.50911475 9.6126163 7.51652527 14.22494507 C7.52079025 15.4249968 7.52505524 16.62504852 7.52944946 17.86146545 C7.52899628 19.17481369 7.52854309 20.48816193 7.52807617 21.84130859 C7.53106896 23.24101349 7.53447177 24.64071755 7.53825378 26.04042053 C7.54708583 29.84005654 7.54943157 33.63967003 7.55006957 37.43931532 C7.55078053 39.81400378 7.55291572 42.18868652 7.55556679 44.56337357 C7.5648176 52.85019545 7.56890201 61.13700125 7.56811523 69.42382812 C7.56751452 77.14458345 7.5780658 84.86526888 7.5938589 92.58600652 C7.60694076 99.21797653 7.61229886 105.84992372 7.61165982 112.48190653 C7.61140503 116.44140684 7.61424626 120.40084505 7.62483788 124.36033249 C7.63452971 128.08512393 7.63459062 131.80979401 7.62732124 135.53458977 C7.62577959 137.54920413 7.63411459 139.56381852 7.64276123 141.57841492 C7.63856674 142.78410629 7.63437225 143.98979767 7.63005066 145.23202515 C7.63059543 146.27583029 7.63114019 147.31963543 7.63170147 148.39507103 C7.29252954 152.42933503 6.49645447 156.00981804 3.8828125 159.16796875 C0.4731904 161.86725291 -2.34872331 161.78954985 -6.6171875 161.35546875 C-11.15371845 158.23030299 -12.18937621 155.18237693 -13.23064232 150.06730652 C-13.98737706 144.7583751 -13.90275309 139.4370513 -13.8918457 134.08398438 C-13.89695663 132.78039474 -13.90206757 131.47680511 -13.90733337 130.13371277 C-13.92064002 126.58207285 -13.92131159 123.03053989 -13.91877007 119.47887993 C-13.91769502 116.50433016 -13.92259716 113.52980156 -13.9273755 110.55525637 C-13.93844111 103.53437983 -13.93892425 96.51355681 -13.93286133 89.49267578 C-13.92681882 82.26886164 -13.93914627 75.04524215 -13.9604314 67.8214612 C-13.97808503 61.59952196 -13.98404298 55.37764448 -13.98079365 49.15568113 C-13.97898718 45.44820063 -13.98155331 41.74085912 -13.99550819 38.03340149 C-14.01049485 33.89779133 -14.00108364 29.76257425 -13.98950195 25.62695312 C-13.99714569 24.41110031 -14.00478943 23.1952475 -14.01266479 21.94255066 C-13.92183126 7.24101571 -13.92183126 7.24101571 -9.15941334 1.64144135 C-6.42315891 -0.64016238 -3.41097545 -0.10441762 0 0 Z " fill="#FCF9F6" transform="translate(1427.6171875,224.64453125)"/>
<path d="M0 0 C18.15 0 36.3 0 55 0 C55 19.47 55 38.94 55 59 C36.85 59 18.7 59 0 59 C0 39.53 0 20.06 0 0 Z " fill="#9A369A" transform="translate(1091,364)"/>
<path d="M0 0 C24.42 0 48.84 0 74 0 C74 12.21 74 24.42 74 37 C49.58 37 25.16 37 0 37 C0 24.79 0 12.58 0 0 Z " fill="#993399" transform="translate(998,135)"/>
<path d="M0 0 C24.42 0 48.84 0 74 0 C74 12.21 74 24.42 74 37 C49.58 37 25.16 37 0 37 C0 24.79 0 12.58 0 0 Z " fill="#993499" transform="translate(792,135)"/>
<path d="M0 0 C2.4375 1.0625 2.4375 1.0625 4 3 C6.15177875 8.89623418 6.29057373 14.33071856 6.2746582 20.56591797 C6.2823246 22.12584473 6.2823246 22.12584473 6.29014587 23.71728516 C6.30400343 27.14231176 6.30308791 30.56713626 6.30078125 33.9921875 C6.30467036 36.38200963 6.30900548 38.77183106 6.31376648 41.16165161 C6.32122051 46.16654706 6.32094336 51.17137196 6.31567383 56.17626953 C6.30988128 62.57734165 6.32680929 68.97812422 6.3500185 75.37914848 C6.36477883 80.31378863 6.36562437 85.24835942 6.36250877 90.18301773 C6.36302086 92.54242654 6.3682373 94.90183934 6.37832069 97.26122665 C6.39071166 100.56610462 6.38387697 103.87042338 6.37231445 107.17529297 C6.38378006 108.62508041 6.38378006 108.62508041 6.39547729 110.10415649 C6.34915924 116.11971746 5.62370135 121.51973581 3 127 C0.17045827 129.66785363 -2.2865387 130.21224087 -6.0625 130.5 C-10 130 -10 130 -12.375 127.9375 C-16.05449698 121.28610162 -16.2942185 115.1510904 -16.2746582 107.70947266 C-16.27976913 106.6987822 -16.28488007 105.68809174 -16.29014587 104.64677429 C-16.30399989 101.31914278 -16.30308818 97.99171936 -16.30078125 94.6640625 C-16.30467057 92.34150109 -16.30900572 90.0189404 -16.31376648 87.69638062 C-16.32121976 82.83271985 -16.32094391 77.96913169 -16.31567383 73.10546875 C-16.30988147 66.88599582 -16.32680918 60.66682091 -16.3500185 54.44739723 C-16.36478111 49.65172602 -16.36562406 44.85612616 -16.36250877 40.06043625 C-16.36302074 37.76801336 -16.36823508 35.47558634 -16.37832069 33.18318558 C-16.3907161 29.97170131 -16.38387438 26.76079211 -16.37231445 23.54931641 C-16.37995819 22.61084366 -16.38760193 21.67237091 -16.39547729 20.70545959 C-16.33985923 13.68221111 -15.17917073 7.43638461 -11.375 1.4375 C-7.68379743 -0.79664892 -4.1974177 -0.61840408 0 0 Z " fill="#FFFAF2" transform="translate(445,225)"/>
<path d="M0 0 C0.33 0 0.66 0 1 0 C1 2.31 1 4.62 1 7 C1.66 7 2.32 7 3 7 C3 4.69 3 2.38 3 0 C3.33 0 3.66 0 4 0 C3.67 5.61 3.34 11.22 3 17 C0.70087899 12.40175798 -0.13732958 9.33841145 -0.0625 4.25 C-0.05347656 3.45078125 -0.04445313 2.6515625 -0.03515625 1.828125 C-0.02355469 1.22484375 -0.01195312 0.6215625 0 0 Z " fill="#C78FC4" transform="translate(700,304)"/>
</svg>
